<svg width="150" height="40" viewBox="0 0 150 40" xmlns="http://www.w3.org/2000/svg">
  <!-- Coffee cup icon -->
  <g transform="translate(5, 8)">
    <path d="M4 8 L4 20 Q4 22 6 22 L14 22 Q16 22 16 20 L16 8 Z" fill="#FFDD00" stroke="#000" stroke-width="1.5"/>
    <ellipse cx="10" cy="8" rx="6" ry="2" fill="#FFDD00" stroke="#000" stroke-width="1.5"/>
    <path d="M16 12 L18 12 Q20 12 20 14 Q20 16 18 16 L16 16" fill="none" stroke="#000" stroke-width="1.5"/>
    <!-- Steam -->
    <path d="M7 4 Q7 2 8 2 Q9 2 9 4" fill="none" stroke="#000" stroke-width="1" stroke-linecap="round"/>
    <path d="M10 4 Q10 1 11 1 Q12 1 12 4" fill="none" stroke="#000" stroke-width="1" stroke-linecap="round"/>
    <path d="M13 4 Q13 2 14 2 Q15 2 15 4" fill="none" stroke="#000" stroke-width="1" stroke-linecap="round"/>
  </g>
  
  <!-- Text -->
  <text x="32" y="26" font-family="Arial, sans-serif" font-size="14" font-weight="bold" fill="#000000">Buy me a coffee</text>
</svg>
